HIERARCHY
ROOT Hips
{
	OFFSET 8.91173 92.52490 -21.95620
	CHANNELS 6 Xposition Yposition Zposition Zrotation Xrotation Yrotation
	JOINT Spine
	{
		OFFSET 0.00000 14.09320 -1.51142
		CHANNELS 3 Zrotation Xrotation Yrotation
		JOINT Spine1
		{
			OFFSET 0.00000 8.69660 0.00000
			CHANNELS 3 Zrotation Xrotation Yrotation
			JOINT Spine2
			{
				OFFSET 0.00000 8.69660 0.00000
				CHANNELS 3 Zrotation Xrotation Yrotation
				JOINT Spine3
				{
					OFFSET 0.00000 8.69660 0.00000
					CHANNELS 3 Zrotation Xrotation Yrotation
					JOINT Neck
					{
						OFFSET 0.00000 11.18130 1.11813
						CHANNELS 3 Zrotation Xrotation Yrotation
						JOINT Neck1
						{
							OFFSET 0.00000 5.70631 0.00000
							CHANNELS 3 Zrotation Xrotation Yrotation
							JOINT Head
							{
								OFFSET 0.00000 5.70631 0.00000
								CHANNELS 3 Zrotation Xrotation Yrotation
								End site
								{
									OFFSET 0.00000 9.71257 0.00000
								}
							}
						}
					}
					JOINT RightShoulder
					{
						OFFSET 0.00000 7.98668 5.19711
						CHANNELS 3 Zrotation Xrotation Yrotation
						JOINT RightArm
						{
							OFFSET 0.00000 18.31580 0.00000
							CHANNELS 3 Zrotation Xrotation Yrotation
							JOINT RightForeArm
							{
								OFFSET 0.00000 28.87420 0.00000
								CHANNELS 3 Zrotation Xrotation Yrotation
								JOINT RightHand
								{
									OFFSET 0.00000 23.87720 0.00000
									CHANNELS 3 Zrotation Xrotation Yrotation
									JOINT RightHandThumb1
									{
										OFFSET -2.41094 4.67063 3.47303
										CHANNELS 3 Zrotation Xrotation Yrotation
										JOINT RightHandThumb2
										{
											OFFSET 0.00000 3.95207 0.00000
											CHANNELS 3 Zrotation Xrotation Yrotation
											JOINT RightHandThumb3
											{
												OFFSET 0.00000 2.15568 0.00000
												CHANNELS 3 Zrotation Xrotation Yrotation
												End site
												{
													OFFSET 0.00000 1.91616 0.00000
												}
											}
										}
									}
									JOINT RightHandIndex1
									{
										OFFSET 0.00000 12.45500 2.51496
										CHANNELS 3 Zrotation Xrotation Yrotation
										JOINT RightHandIndex2
										{
											OFFSET 0.00000 4.79039 0.00000
											CHANNELS 3 Zrotation Xrotation Yrotation
											JOINT RightHandIndex3
											{
												OFFSET 0.00000 2.63472 0.00000
												CHANNELS 3 Zrotation Xrotation Yrotation
												End site
												{
													OFFSET 0.00000 1.91616 0.00000
												}
											}
										}
									}
									JOINT RightHandMiddle1
									{
										OFFSET 0.00000 12.45500 -0.07984
										CHANNELS 3 Zrotation Xrotation Yrotation
										JOINT RightHandMiddle2
										{
											OFFSET 0.00000 5.38919 0.00000
											CHANNELS 3 Zrotation Xrotation Yrotation
											JOINT RightHandMiddle3
											{
												OFFSET 0.00000 3.11376 0.00000
												CHANNELS 3 Zrotation Xrotation Yrotation
												End site
												{
													OFFSET 0.00000 2.03592 0.00000
												}
											}
										}
									}
									JOINT RightHandRing1
									{
										OFFSET 0.00000 11.07780 -2.67464
										CHANNELS 3 Zrotation Xrotation Yrotation
										JOINT RightHandRing2
										{
											OFFSET 0.00000 4.91015 0.00000
											CHANNELS 3 Zrotation Xrotation Yrotation
											JOINT RightHandRing3
											{
												OFFSET 0.00000 3.11376 0.00000
												CHANNELS 3 Zrotation Xrotation Yrotation
												End site
												{
													OFFSET 0.00000 2.03592 0.00000
												}
											}
										}
									}
									JOINT RightHandPinky1
									{
										OFFSET 0.00000 9.70055 -5.26943
										CHANNELS 3 Zrotation Xrotation Yrotation
										JOINT RightHandPinky2
										{
											OFFSET 0.00000 3.95207 0.00000
											CHANNELS 3 Zrotation Xrotation Yrotation
											JOINT RightHandPinky3
											{
												OFFSET 0.00000 2.15568 0.00000
												CHANNELS 3 Zrotation Xrotation Yrotation
												End site
												{
													OFFSET 0.00000 1.91616 0.00000
												}
											}
										}
									}
								}
							}
						}
					}
					JOINT LeftShoulder
					{
						OFFSET 0.00000 7.98668 5.19711
						CHANNELS 3 Zrotation Xrotation Yrotation
						JOINT LeftArm
						{
							OFFSET 0.00000 18.31580 0.00000
							CHANNELS 3 Zrotation Xrotation Yrotation
							JOINT LeftForeArm
							{
								OFFSET 0.00000 28.87420 0.00000
								CHANNELS 3 Zrotation Xrotation Yrotation
								JOINT LeftHand
								{
									OFFSET 0.00000 23.87720 0.00000
									CHANNELS 3 Zrotation Xrotation Yrotation
									JOINT LeftHandThumb1
									{
										OFFSET 2.41094 4.67063 3.47303
										CHANNELS 3 Zrotation Xrotation Yrotation
										JOINT LeftHandThumb2
										{
											OFFSET 0.00000 3.95207 0.00000
											CHANNELS 3 Zrotation Xrotation Yrotation
											JOINT LeftHandThumb3
											{
												OFFSET 0.00000 2.15568 0.00000
												CHANNELS 3 Zrotation Xrotation Yrotation
												End site
												{
													OFFSET 0.00000 1.60000 0.00000
												}
											}
										}
									}
									JOINT LeftHandIndex1
									{
										OFFSET 0.00000 12.45500 2.51496
										CHANNELS 3 Zrotation Xrotation Yrotation
										JOINT LeftHandIndex2
										{
											OFFSET 0.00000 4.79039 0.00000
											CHANNELS 3 Zrotation Xrotation Yrotation
											JOINT LeftHandIndex3
											{
												OFFSET 0.00000 2.63472 0.00000
												CHANNELS 3 Zrotation Xrotation Yrotation
												End site
												{
													OFFSET 0.00000 1.91616 0.00000
												}
											}
										}
									}
									JOINT LeftHandMiddle1
									{
										OFFSET 0.00000 12.45500 -0.07984
										CHANNELS 3 Zrotation Xrotation Yrotation
										JOINT LeftHandMiddle2
										{
											OFFSET 0.00000 5.38919 0.00000
											CHANNELS 3 Zrotation Xrotation Yrotation
											JOINT LeftHandMiddle3
											{
												OFFSET 0.00000 3.11376 0.00000
												CHANNELS 3 Zrotation Xrotation Yrotation
												End site
												{
													OFFSET 0.00000 2.03592 0.00000
												}
											}
										}
									}
									JOINT LeftHandRing1
									{
										OFFSET 0.00000 11.07780 -2.67464
										CHANNELS 3 Zrotation Xrotation Yrotation
										JOINT LeftHandRing2
										{
											OFFSET 0.00000 4.91015 0.00000
											CHANNELS 3 Zrotation Xrotation Yrotation
											JOINT LeftHandRing3
											{
												OFFSET 0.00000 3.11376 0.00000
												CHANNELS 3 Zrotation Xrotation Yrotation
												End site
												{
													OFFSET 0.00000 2.03592 0.00000
												}
											}
										}
									}
									JOINT LeftHandPinky1
									{
										OFFSET 0.00000 9.70055 -5.26943
										CHANNELS 3 Zrotation Xrotation Yrotation
										JOINT LeftHandPinky2
										{
											OFFSET 0.00000 3.95207 0.00000
											CHANNELS 3 Zrotation Xrotation Yrotation
											JOINT LeftHandPinky3
											{
												OFFSET 0.00000 2.15568 0.00000
												CHANNELS 3 Zrotation Xrotation Yrotation
												End site
												{
													OFFSET 0.00000 1.91616 0.00000
												}
											}
										}
									}
								}
							}
						}
					}
				}
			}
		}
	}
	JOINT RightUpLeg
	{
		OFFSET -10.06560 0.00000 0.00000
		CHANNELS 3 Zrotation Xrotation Yrotation
		JOINT RightLeg
		{
			OFFSET 0.00000 -42.98740 0.00000
			CHANNELS 3 Zrotation Xrotation Yrotation
			JOINT RightFoot
			{
				OFFSET 0.00000 -44.62500 0.00000
				CHANNELS 3 Zrotation Xrotation Yrotation
				JOINT RightForeFoot
				{
					OFFSET 0.00000 -3.74821 0.00000
					CHANNELS 3 Zrotation Xrotation Yrotation
					JOINT RightToeBase
					{
						OFFSET 0.00000 0.00000 14.67920
						CHANNELS 3 Zrotation Xrotation Yrotation
						End site
						{
							OFFSET 0.00000 0.00000 10.36040
						}
					}
				}
			}
		}
	}
	JOINT LeftUpLeg
	{
		OFFSET 10.06560 0.00000 0.00000
		CHANNELS 3 Zrotation Xrotation Yrotation
		JOINT LeftLeg
		{
			OFFSET 0.00000 -42.98740 0.00000
			CHANNELS 3 Zrotation Xrotation Yrotation
			JOINT LeftFoot
			{
				OFFSET 0.00000 -44.62500 0.00000
				CHANNELS 3 Zrotation Xrotation Yrotation
				JOINT LeftForeFoot
				{
					OFFSET 0.00000 -3.74821 0.00000
					CHANNELS 3 Zrotation Xrotation Yrotation
					JOINT LeftToeBase
					{
						OFFSET 0.00000 0.00000 14.67920
						CHANNELS 3 Zrotation Xrotation Yrotation
						End site
						{
							OFFSET 0.00000 0.00000 10.67280
						}
					}
				}
			}
		}
	}
}
MOTION
Frames: 4
Frame Time: 0.083333333
25.755 89.2053 -62.2119 -1.28087 -0.694232 -168.614 -1.81571 -2.60676 -0.424208 -1.11642 3.57629 0.336349 -1.3856 -2.26161 -3.04397 1.63798 1.57512 -1.49572 2.34788 15.3137 -2.82269 1.16855 -2.34051 -5.79001 2.2314 -18.2289 -0.563808 90 0 0 75.1151 12.5197 -7.27299 0.107205 82.8915 32.3448 15.787 -11.311 0.026036 20.4487 -8.76559 3.24978 3.18055e-15 -4.77083e-15 1.59028e-15 0.0 0.0 -0.0 -50.0897 -7.95139e-16 2.38542e-15 6.36111e-15 1.59028e-15 -0.0 3.18055e-15 3.97569e-15 7.95139e-16 -56.6459 -3.18055e-15 1.59028e-15 6.36111e-15 1.59028e-15 1.59028e-15 3.18055e-15 1.59028e-15 -0.0 -38.9279 -1.59028e-15 3.57812e-15 2.20695e-32 -1.59028e-15 7.95139e-16 1.32417e-31 -3.18055e-15 2.38542e-15 119.638 1.59028e-15 -1.59028e-15 -9.54166e-15 7.95139e-16 -1.59028e-15 0.0 0.0 -7.95139e-16 -90 0 0 -81.7657 27.8484 45.978 -179.872 85.9438 178.447 -13.0852 -11.9045 0.0117204 -42.433 -13.9109 -12.3995 -3.18055e-15 3.72721e-17 -6.95746e-16 4.52598e-34 3.72721e-17 -6.95746e-16 -30.4893 7.95139e-16 -1.59028e-15 3.18055e-15 1.59028e-15 -3.18055e-15 3.18055e-15 0.0 -0.0 -90.5967 4.77083e-15 1.59028e-15 -6.36111e-15 -3.18055e-15 -4.77083e-15 -6.36111e-15 -3.18055e-15 -1.59028e-15 -83.323 9.54166e-15 4.77083e-15 -6.36111e-15 7.95139e-15 -0.0 6.36111e-15 -1.59028e-15 -1.59028e-15 -105.507 6.36111e-15 4.77083e-15 -3.18055e-15 3.18055e-15 -0.0 4.41391e-32 1.59028e-15 -1.59028e-15 1.13793 -7.3158 -5.20699 -9.60706e-16 16.2573 1.65651e-15 -2.83347 -20.976 -4.47875 -2.98177e-16 3.18055e-15 -7.95139e-16 -1.36069e-16 8.96443 -4.02486e-16 5.98335 -7.06601 12.9958 3.11449e-15 34.1025 -7.68216e-15 -5.84 -18.5546 -7.47851 3.97569e-16 0.0 -0.0 1.17456e-15 -6.80287 3.20311e-15
25.9114 89.0122 -62.4108 -0.764977 -0.546001 -170.885 -1.02281 -2.83151 -0.459159 -0.96114 3.44213 0.275341 -1.08919 -1.78686 -3.37953 1.8925 1.28976 -1.53049 1.90258 11.0128 -3.01813 0.704659 -3.06208 -6.03647 1.68516 -18.7455 -0.549617 90 0 0 73.8811 5.7557 -11.5383 6.14276e-05 83.611 32.2709 18.8163 -10.271 1.17673e-05 20.3584 -8.64982 3.19419 3.18055e-15 3.18055e-15 -0.0 -9.54166e-15 -6.36111e-15 4.77083e-15 -50.4651 1.59028e-15 1.59028e-15 3.18055e-15 1.59028e-15 -1.59028e-15 3.18055e-15 0.0 -0.0 -56.7203 3.18055e-15 3.18055e-15 6.36111e-15 4.77083e-15 -0.0 -3.18055e-15 3.18055e-15 -1.59028e-15 -39.0834 0.0 3.18055e-15 0.0 3.18055e-15 -0.0 -3.18055e-15 -4.77083e-15 -7.95139e-16 116.756 -4.77083e-15 -3.18055e-15 -3.18055e-15 0.0 -0.0 -4.41391e-32 1.59028e-15 1.59028e-15 -90 0 0 -81.8552 22.946 45.3537 -180.0 86.9053 -178.783 -13.8889 -14.0846 3.52629e-08 -44.2946 -14.2739 -13.526 -1.10348e-32 1.98785e-16 3.18055e-15 -1.59028e-15 -2.98177e-16 -7.95139e-16 -35.4585 -5.1684e-15 -1.59028e-14 -6.36111e-15 -3.97569e-15 -0.0 -3.18055e-15 1.98785e-15 3.18055e-15 -93.441 1.74931e-14 -3.65764e-14 -1.27222e-14 -7.95139e-15 -3.18055e-15 -3.18055e-15 4.77083e-15 -0.0 -84.1775 7.95139e-15 -3.81667e-14 -3.18055e-15 3.97569e-15 6.36111e-15 -8.82781e-32 -1.59028e-15 -3.18055e-15 -105.602 2.06736e-14 -3.4191e-14 -3.18055e-15 -6.36111e-15 -7.15625e-15 -1.10348e-31 -1.59028e-15 -3.97569e-15 1.95105 -7.53706 -3.87816 -2.37845e-16 16.6532 8.29949e-16 -2.70741 -21.2337 -3.53131 9.93923e-17 -1.59028e-15 -3.97569e-16 -3.58047e-16 8.98615 -1.20753e-15 6.79838 -6.84717 15.509 1.8326e-15 35.0377 -3.88453e-15 -6.24457 -19.3292 -5.98025 3.97569e-16 0.0 -0.0 3.97569e-16 -7.19019 -0.0
25.7842 88.9671 -62.3974 -0.893023 -0.198962 -174.426 -0.600678 -2.70663 -0.500328 -0.873747 3.45126 0.212214 -0.915732 -1.53432 -4.21158 2.184 1.22073 -1.72735 1.9016 9.25557 -2.65762 0.566257 -4.12322 -4.64657 1.37015 -19.9205 -0.425985 90 0 0 76.1636 1.65332 -15.1283 -0.00564527 86.6292 32.4603 21.1005 -9.25505 0.00024741 20.0491 -4.30007 1.56777 -3.18055e-15 -3.18055e-15 1.59028e-15 0.0 3.18055e-15 -0.0 -49.6189 4.77083e-15 -1.43125e-14 -0.0 -6.36111e-15 -0.0 -3.18055e-15 0.0 -0.0 -55.7412 6.36111e-15 -1.74931e-14 -3.18055e-15 -3.18055e-15 1.59028e-15 0.0 0.0 -0.0 -38.1759 6.36111e-15 -1.51076e-14 3.18055e-15 1.59028e-15 -0.0 3.18055e-15 3.18055e-15 -0.0 114.334 2.38542e-14 7.95139e-15 3.18055e-15 0.0 -0.0 -4.41391e-32 1.59028e-15 1.59028e-15 -90 0 0 -80.9636 18.561 42.1913 179.989 86.4188 175.263 -14.2877 -13.2435 0.000365996 -44.2716 -14.3246 -13.5608 3.97569e-16 -4.47266e-16 1.59028e-15 -3.97569e-16 -1.00883e-14 3.18055e-15 -31.8681 -5.76476e-15 2.38542e-15 1.59028e-15 -5.56597e-15 1.59028e-15 8.27607e-33 5.96354e-16 -7.95139e-16 -93.7601 -9.54166e-15 -3.97569e-15 -3.18055e-15 3.18055e-15 5.56597e-15 9.54166e-15 7.95139e-16 -7.95139e-16 -86.0894 -1.11319e-14 -0.0 3.18055e-15 -2.38542e-15 -7.95139e-16 -1.98626e-31 -7.15625e-15 -1.59028e-15 -108.104 -1.03368e-14 -3.57812e-15 -3.18055e-15 -5.56597e-15 -1.19271e-14 -3.18055e-15 -7.95139e-16 -5.1684e-15 2.06934 -7.80604 -1.44907 -3.00663e-16 17.3377 -8.32985e-15 -2.38497 -21.2261 -2.36707 -4.96962e-17 3.18055e-15 -3.97569e-16 3.6446e-17 8.99685 4.02522e-16 7.20578 -6.43251 18.2765 2.3126e-15 36.4478 -7.90791e-15 -7.22521 -18.8501 -6.18011 -3.97569e-16 -7.95139e-16 -3.18055e-15 4.84347e-16 -8.65869 3.21722e-15
25.3644 88.9391 -62.005 -1.03374 0.332301 -178.347 -0.18226 -2.5042 -0.552457 -0.788966 3.48706 0.164416 -0.680455 -1.46471 -4.68878 2.58709 1.21656 -1.81317 1.76685 8.97656 -1.94728 0.476615 -4.30775 -2.75199 0.922393 -20.1872 -0.268729 90 0 0 76.6078 1.05523 -17.1789 -1.18513e-05 85.5773 33.411 21.1712 -9.8158 2.36724e-06 18.6339 -2.23188 0.752346 3.18055e-15 -3.18055e-15 6.36111e-15 3.18055e-15 -1.59028e-15 -6.36111e-15 -48.3982 -7.95139e-15 3.18055e-15 -6.36111e-15 6.36111e-15 -1.59028e-15 3.18055e-15 -1.59028e-15 1.59028e-15 -54.6762 -4.77083e-15 4.77083e-15 3.18055e-15 1.59028e-15 -0.0 3.18055e-15 4.77083e-15 -0.0 -36.6257 -7.95139e-15 7.95139e-15 -3.18055e-15 0.0 -3.97569e-15 -3.18055e-15 1.59028e-15 -2.38542e-15 112.725 -1.74931e-14 -9.54166e-15 0.0 0.0 -0.0 -6.36111e-15 3.18055e-15 -4.77083e-15 -90 0 0 -80.3251 18.6765 40.9923 180.0 87.2197 176.039 -13.1635 -13.9259 1.32329e-07 -44.452 -13.3849 -12.7952 -3.97569e-16 1.75148e-14 -7.95139e-16 3.47873e-16 1.44088e-14 1.59028e-15 -30.4664 3.97569e-16 -1.82882e-14 -4.77083e-15 3.57812e-15 3.18055e-15 1.59028e-15 -3.97569e-16 7.95139e-16 -92.1409 3.33958e-14 -2.8625e-14 -9.54166e-15 2.38542e-15 7.15625e-15 -2.20695e-32 1.59028e-15 7.95139e-16 -85.3821 2.8625e-14 -3.10104e-14 -9.54166e-15 -1.59028e-15 -5.56597e-15 -6.36111e-15 0.0 -6.36111e-15 -107.864 3.97569e-14 -2.66371e-14 -1.32417e-31 -1.59028e-15 -4.77083e-15 3.18055e-15 0.0 -7.95139e-16 1.92281 -8.11226 0.607994 -5.00654e-16 17.9078 -2.08906e-15 -1.5121 -20.9319 -0.372593 9.93923e-17 1.59028e-15 -7.95139e-16 -6.98111e-17 8.9916 -2.41509e-15 7.71833 -5.92378 21.2331 -2.08251e-15 37.9457 4.0332e-15 -8.77997 -17.901 -7.98004 1.59028e-15 -1.59028e-15 -0.0 -1.83191e-16 -10.348 -3.23314e-15
